<?xml version="1.0" encoding="utf-8"?>
<!-- Generator: Adobe Illustrator 23.0.6, SVG Export Plug-In . SVG Version: 6.00 Build 0)  -->
<svg version="1.1" id="Layer_1" xmlns="http://www.w3.org/2000/svg" xmlns:xlink="http://www.w3.org/1999/xlink" x="0px" y="0px"
	 viewBox="0 0 1920 500" style="enable-background:new 0 0 1920 500;" xml:space="preserve">
<style type="text/css">
	.st0{fill:#D47019;}
	.st1{display:none;}
</style>
<g>
	<path class="st0" d="M0.5,500.5v-176c38.1-24.7,96.2-54.7,170-62c124.2-12.3,174.4,51.5,291,51c123.8-0.5,124-72.7,269-106
		c185.5-42.6,365.4,34.1,466,77c178.1,76,200.5,142.5,286,126c122.4-23.7,148.6-174.1,272-186c66.4-6.4,125.2,30.7,166,65v211"/>
	<path class="st1" d="M1921,500.5h-1V289.7c-57.2-48-112.8-69.8-165.5-64.7c-63.2,6.1-100,47.7-139,91.8
		c-36,40.6-73.2,82.7-132.9,94.2c-49.6,9.6-77.2-8.2-127.5-40.4c-35.3-22.6-83.6-53.6-158.8-85.7c-98-41.8-280.4-119.6-465.7-77
		c-67.7,15.6-103.8,39.6-135.7,60.9c-36.1,24.1-67.3,44.9-133.4,45.2c-0.4,0-0.9,0-1.3,0c-53.3,0-93.1-13.5-131.7-26.6
		c-44.8-15.2-91.2-31-157.9-24.4C112.4,268.7,55.4,289.5,1,324.8v175.7H0V324.2l0.2-0.1c54.6-35.4,111.9-56.3,170.2-62.1
		c67-6.6,113.4,9.2,158.3,24.4c38.8,13.2,78.9,26.8,132.7,26.6c65.8-0.3,96.8-21,132.8-45c31.9-21.3,68.1-45.4,136-61
		c80.4-18.5,169.5-16.3,265.1,6.4c80.8,19.2,150.4,48.9,201.2,70.6c75.3,32.1,123.7,63.1,159,85.8c50,32.1,77.6,49.7,126.7,40.2
		c59.4-11.5,96.5-53.4,132.4-93.9c18.8-21.2,38.2-43.1,60.3-60c24.9-18.9,50.8-29.4,79.3-32.2c53-5.1,108.9,16.8,166.4,65.1l0.2,0.2
		V500.5z"/>
</g>
</svg>
